<svg width="1036" height="518" viewBox="0 0 1036 518" fill="none" xmlns="http://www.w3.org/2000/svg">
<path d="M1036 518C1036 380.618 981.425 248.863 884.281 151.719C787.138 54.5749 655.382 1.03721e-05 518 0C380.618 -1.03721e-05 248.863 54.5748 151.719 151.719C54.5749 248.862 2.07441e-05 380.618 0 518L1036 518Z" fill="#FD6E0A" fill-opacity="0.1"/>
<path d="M953 518C953 402.631 907.17 291.987 825.591 210.409C744.013 128.83 633.369 83 518 83C402.631 83 291.987 128.83 210.409 210.409C128.83 291.987 83 402.631 83 518L953 518Z" fill="#FD6E0A" fill-opacity="0.15"/>
<path d="M867 518C867 425.439 830.23 336.67 764.78 271.22C699.33 205.77 610.561 169 518 169C425.439 169 336.67 205.77 271.22 271.22C205.77 336.67 169 425.439 169 518L867 518Z" fill="#FD6E0A" fill-opacity="0.2"/>
</svg>
